HIERARCHY
ROOT root
{
	OFFSET 0.000000 0.000000 0.000000
	CHANNELS 6 Xposition Yposition Zposition Zrotation Yrotation Xrotation
	JOINT lhip
	{
		OFFSET 0.058581 -0.082280 -0.017664
		CHANNELS 3 Zrotation Yrotation Xrotation
		JOINT lknee
		{
			OFFSET 0.043451 -0.386469 0.008037
			CHANNELS 3 Zrotation Yrotation Xrotation
			JOINT lankle
			{
				OFFSET -0.014790 -0.426874 -0.037428
				CHANNELS 3 Zrotation Yrotation Xrotation
				JOINT ltoe
				{
					OFFSET 0.041054 -0.060286 0.122042
					CHANNELS 3 Zrotation Yrotation Xrotation
					End Site
					{
						OFFSET 0.000000 0.000000 0.000000
					}
				}
			}
		}
	}
	JOINT rhip
	{
		OFFSET -0.060310 -0.090513 -0.013543
		CHANNELS 3 Zrotation Yrotation Xrotation
		JOINT rknee
		{
			OFFSET -0.043257 -0.383688 -0.004843
			CHANNELS 3 Zrotation Yrotation Xrotation
			JOINT rankle
			{
				OFFSET 0.019056 -0.420046 -0.034562
				CHANNELS 3 Zrotation Yrotation Xrotation
				JOINT rtoe
				{
					OFFSET -0.034840 -0.062106 0.130323
					CHANNELS 3 Zrotation Yrotation Xrotation
					End Site
					{
						OFFSET 0.000000 0.000000 0.000000
					}
				}
			}
		}
	}
	JOINT lowerback
	{
		OFFSET 0.004439 0.124404 -0.038385
		CHANNELS 3 Zrotation Yrotation Xrotation
		JOINT upperback
		{
			OFFSET 0.004488 0.137956 0.026820
			CHANNELS 3 Zrotation Yrotation Xrotation
			JOINT chest
			{
				OFFSET -0.002265 0.056032 0.002855
				CHANNELS 3 Zrotation Yrotation Xrotation
				JOINT lowerneck
				{
					OFFSET -0.013390 0.211636 -0.033468
					CHANNELS 3 Zrotation Yrotation Xrotation
					JOINT upperneck
					{
						OFFSET 0.010113 0.088937 0.050410
						CHANNELS 3 Zrotation Yrotation Xrotation
						End Site
						{
							OFFSET 0.000000 0.000000 0.000000
						}
					}
				}
				JOINT lclavicle
				{
					OFFSET 0.071702 0.114000 -0.018898
					CHANNELS 3 Zrotation Yrotation Xrotation
					JOINT lshoulder
					{
						OFFSET 0.122921 0.045205 -0.019046
						CHANNELS 3 Zrotation Yrotation Xrotation
						JOINT lelbow
						{
							OFFSET 0.255332 -0.015649 -0.022946
							CHANNELS 3 Zrotation Yrotation Xrotation
							JOINT lwrist
							{
								OFFSET 0.265709 0.012698 -0.007375
								CHANNELS 3 Zrotation Yrotation Xrotation
								End Site
								{
									OFFSET 0.000000 0.000000 0.000000
								}
							}
						}
					}
				}
				JOINT rclavicle
				{
					OFFSET -0.082954 0.112472 -0.023707
					CHANNELS 3 Zrotation Yrotation Xrotation
					JOINT rshoulder
					{
						OFFSET -0.113228 0.046853 -0.008472
						CHANNELS 3 Zrotation Yrotation Xrotation
						JOINT relbow
						{
							OFFSET -0.260127 -0.014369 -0.031269
							CHANNELS 3 Zrotation Yrotation Xrotation
							JOINT rwrist
							{
								OFFSET -0.269108 0.006794 -0.006027
								CHANNELS 3 Zrotation Yrotation Xrotation
								End Site
								{
									OFFSET 0.000000 0.000000 0.000000
								}
							}
						}
					}
				}
			}
		}
	}
}
MOTION
Frames: 13
Frame Time: 0.033333
-1.992572 0.769624 0.964241 82.935100 3.760908 86.697137 7.660399 2.171274 5.654887 -2.983938 -2.918287 3.315288 14.158598 15.222717 -20.856023 0.000000 -0.000000 0.000000 -1.831564 -1.382461 -1.387941 3.382999 -0.021053 12.763625 -0.240279 -1.892253 -17.397650 0.000000 -0.000000 0.000000 -0.965325 1.765556 7.503818 1.957679 -0.326718 3.391265 0.935288 -0.159232 2.543941 2.745098 0.912973 7.063313 3.976788 -3.908041 4.252091 -23.370092 0.661679 5.185961 -61.830210 -6.814715 9.628709 9.941601 -27.495299 12.869351 -10.583206 -5.202596 -3.623356 23.576077 0.465185 3.523309 60.106962 2.100201 7.303820 -17.722408 17.554951 -3.333284 7.869923 -0.360718 -6.403313 
-1.994157 0.767877 0.964515 82.918445 3.462765 87.271537 7.049842 1.510366 5.321440 -2.573965 -2.707783 2.776663 12.524608 15.338004 -20.138747 0.000000 -0.000000 0.000000 -1.631334 0.294865 -2.068546 2.785854 1.602802 12.317182 0.467441 -2.799467 -19.245734 0.000000 -0.000000 0.000000 -1.218088 1.378367 7.041991 2.093970 0.249254 3.449955 1.009058 -0.596865 4.697413 3.638371 3.656183 3.947084 -0.531395 -1.800843 6.383739 -23.938405 1.955346 1.950732 -61.242237 -7.477306 11.345827 9.417914 -27.897192 12.952388 -10.067347 -6.057695 -2.870654 24.425146 0.038823 0.797304 59.207260 2.543928 9.896609 -17.772559 17.181721 -4.356116 6.713405 -0.279097 -5.496145 
-1.994920 0.765367 0.963811 83.097487 3.378350 87.191040 6.978208 1.375578 5.524944 -2.480162 -2.819650 2.601162 11.288809 15.227776 -19.821650 0.000000 -0.000000 0.000000 -1.252309 1.340544 -2.223935 1.974920 2.885335 12.228671 0.580579 -2.217564 -21.140709 0.000000 -0.000000 0.000000 -1.259921 1.222040 7.514176 2.335973 0.076579 3.228399 1.073477 -0.396240 4.033299 3.806089 3.327442 5.260828 0.729654 -2.213745 5.407687 -23.454660 1.509153 2.676980 -61.604217 -7.432655 11.505494 9.551121 -28.937692 12.632397 -10.191981 -5.957137 -3.704312 24.146451 0.165811 1.407928 59.390563 2.271699 9.585034 -18.032298 17.367288 -4.125199 7.069842 -0.444516 -5.853314 
-1.993334 0.760988 0.961975 84.383873 3.337737 86.404210 7.003588 0.730027 6.343515 -2.070818 -2.565458 2.690789 8.281014 14.262157 -20.665707 0.000000 -0.000000 0.000000 -0.236269 2.158516 -0.911777 0.078453 4.056157 11.545309 -1.796023 -2.068552 -26.730263 0.000000 -0.000000 0.000000 -0.711449 0.942279 8.107382 2.585925 -1.088414 4.421757 0.907907 -0.064902 0.965629 3.287685 3.929735 8.233399 3.742607 -4.115616 9.555995 -22.586571 -0.478990 5.717391 -62.828480 -6.902763 11.750624 12.035633 -29.808586 11.842630 -11.362398 -8.061622 -6.067464 23.688304 1.070985 4.309380 60.864729 1.351516 6.726476 -19.998600 17.509962 -3.869704 7.450070 1.214851 -5.333300 
-1.992203 0.759814 0.961347 84.963105 3.071707 86.307529 6.666896 0.423950 6.398871 -1.867695 -2.800856 2.765473 7.827599 14.285280 -20.767906 0.000000 -0.000000 0.000000 -0.417414 1.611756 -1.128231 -0.083608 3.355549 12.564906 -1.673699 -1.794093 -27.661422 0.000000 -0.000000 0.000000 -0.526305 0.853054 8.168573 2.427851 -1.615785 4.538081 0.761485 -0.019695 0.544667 3.194216 4.999526 10.172250 5.218822 -3.999204 8.835939 -22.106775 -0.868811 5.937583 -63.177737 -6.372787 12.113529 12.053059 -30.319292 12.582756 -10.015554 -7.872932 -7.245505 23.460920 1.066399 4.647909 61.570872 0.800531 6.290179 -20.606957 16.930399 -3.143358 4.316014 -0.796300 -4.917433 
-1.991629 0.755501 0.960855 85.132015 2.710876 86.065818 6.502234 0.195683 6.596369 -1.736320 -2.929141 3.016682 6.413082 14.368881 -20.554890 0.000000 -0.000000 0.000000 -0.195023 1.922418 -1.439698 -0.578896 3.130174 13.916315 -1.653756 -1.917019 -28.443299 0.000000 -0.000000 0.000000 -0.246549 0.523766 8.744889 2.411386 -1.618097 3.999438 0.638375 -0.012221 0.669765 3.195237 5.724667 11.339309 5.328845 -3.821986 9.915018 -21.969795 -0.631085 5.856364 -63.365937 -6.499080 12.192416 12.131068 -30.575588 12.992398 -10.468359 -8.679114 -7.267671 23.228591 0.415940 4.605793 62.099789 0.658593 6.097975 -20.999153 17.071010 -2.362578 4.955779 -0.467878 -5.033199 
-1.992524 0.749148 0.960721 84.545265 2.530733 85.703157 6.781659 0.176883 6.770900 -1.796356 -2.816971 3.657412 4.481416 14.439549 -20.493486 0.000000 -0.000000 0.000000 0.499278 3.500387 -1.580293 -0.973043 3.834942 15.039313 -1.568934 -2.283038 -28.287846 0.000000 -0.000000 0.000000 -0.145509 0.295750 9.260294 2.747882 -1.016353 4.283153 0.755665 -0.010631 0.958094 3.235912 6.065040 10.591162 3.687759 -3.582868 11.802123 -22.348361 -0.557809 5.518542 -63.303565 -6.868379 12.186469 12.790570 -30.923335 12.075071 -11.807781 -8.812266 -6.364077 23.284640 0.223225 4.039148 61.710355 0.316720 6.368509 -20.705289 17.928935 -2.380167 7.763023 1.051459 -6.361619 
-1.989984 0.745418 0.960350 85.481013 2.014917 85.700196 6.164458 -0.572356 6.232807 -1.378096 -3.132831 5.017988 3.596355 14.478171 -20.587288 0.000000 -0.000000 0.000000 0.096849 2.809275 -1.245688 -0.752640 4.007188 15.410910 -0.733929 -2.633352 -28.170222 0.000000 -0.000000 0.000000 0.739066 -0.035944 8.921941 2.875701 -1.475816 4.526773 0.422369 -0.357957 2.105916 3.115606 4.088218 7.259283 -0.657679 -4.696881 12.429365 -23.047486 0.354988 3.718368 -62.906215 -7.300818 12.545897 11.903106 -30.562240 12.800832 -12.807858 -9.567598 -5.532626 23.049989 -0.701456 2.598282 61.560954 -0.199349 7.234749 -20.937516 18.384123 -3.202956 8.234528 1.433048 -5.468962 
-1.990021 0.738144 0.960657 84.746412 2.117212 85.496459 6.878815 -0.919017 5.668233 -1.708286 -2.933908 7.051831 2.401732 15.119499 -20.886344 0.000000 -0.000000 0.000000 1.194896 4.432402 -1.291387 -0.905000 5.244648 15.682665 -0.905732 -3.320718 -27.617374 0.000000 -0.000000 0.000000 1.325940 -0.279786 9.692279 3.110551 -0.822683 3.903364 0.410908 -0.084361 2.107252 2.604472 4.169371 8.014942 -1.183595 -4.196055 13.819840 -23.158281 0.587052 3.086151 -62.949061 -6.940349 12.571159 11.491372 -30.512160 13.278709 -13.203275 -9.384497 -4.585168 23.036428 -1.286735 2.787914 61.101953 -0.608578 7.201510 -20.678114 18.260002 -2.770064 9.357112 1.671829 -5.503850 
-1.988029 0.732889 0.960768 85.054341 1.838604 84.636877 6.851748 -1.626967 5.184396 -1.805365 -3.106093 9.950959 1.733149 15.586310 -21.381416 0.000000 -0.000000 0.000000 1.414523 4.438942 0.004538 -0.801587 5.627182 15.559119 -0.935734 -3.967396 -27.572492 0.000000 -0.000000 0.000000 2.090957 -0.548560 10.614775 3.106038 -1.273424 4.048324 0.051665 -0.599496 2.210416 2.319439 4.713294 8.320977 -1.585221 -3.386597 14.850541 -23.880532 0.106549 4.996623 -62.010096 -6.807720 12.141130 12.434240 -32.482226 11.897856 -11.619933 -9.209960 -4.738971 23.387476 -0.497954 3.406332 60.280372 -0.870640 7.093045 -20.140958 18.676720 -3.117780 7.247973 1.557657 -6.121833 
-1.985387 0.728579 0.959970 85.531319 1.301905 84.098869 6.302558 -2.474712 4.021898 -1.790831 -3.191986 13.632324 0.626624 15.977773 -21.367145 0.000000 -0.000000 0.000000 1.152034 3.845891 0.727851 -0.748480 5.550995 16.103922 -0.284455 -4.043592 -27.998166 0.000000 -0.000000 0.000000 2.490606 -0.549447 11.128702 3.156574 -1.672043 3.917102 -0.090500 -0.455856 2.522836 2.089196 4.777954 8.975368 -1.967587 -3.416630 15.225286 -23.526401 0.453661 3.853963 -62.466844 -6.684655 12.609377 11.337589 -31.894562 13.189577 -11.442177 -9.634385 -4.844033 23.153995 -1.175520 3.131348 59.949404 -1.356679 7.123001 -19.895795 18.951377 -2.721750 7.084620 1.425083 -5.651111 
-1.981859 0.725428 0.959766 85.805374 0.972730 83.565369 5.898985 -3.811259 2.837278 -1.919578 -3.215867 17.544629 -1.034275 15.983854 -21.154298 0.000000 -0.000000 0.000000 1.003714 3.380254 1.727606 -0.752497 5.384634 16.095689 0.127318 -3.791025 -28.273449 0.000000 -0.000000 0.000000 3.135839 -0.522767 11.686513 3.160442 -2.116705 3.807651 -0.287028 -0.507134 2.525984 1.805801 4.769363 9.783714 -2.148178 -3.073356 15.774972 -23.732780 0.421066 3.673799 -62.572496 -6.227564 12.731622 11.327542 -31.666910 13.040790 -12.379535 -9.656032 -4.644651 23.084263 -1.153311 3.171744 59.389520 -1.812671 7.015727 -19.686311 18.791413 -2.612181 8.403396 1.632798 -5.630841 
-1.978374 0.721887 0.960011 85.197801 0.465924 82.668357 5.533437 -4.781893 2.533423 -2.181349 -2.962239 20.510101 -2.922267 15.935740 -20.958022 0.000000 -0.000000 0.000000 0.951098 3.403451 2.848329 -1.038160 5.924089 16.269559 0.511942 -3.572193 -28.441215 0.000000 -0.000000 0.000000 3.244124 -0.149069 12.371100 3.145793 -2.188476 4.538331 -0.371825 -0.314184 2.799495 1.496444 5.020336 9.868921 -2.070918 -2.912757 15.567313 -23.831132 0.165659 3.407317 -62.594193 -6.156951 12.780597 11.342965 -31.553692 13.095924 -12.230070 -9.900666 -4.709535 23.254428 -1.012071 2.924364 58.912221 -1.781615 6.767434 -19.857352 18.753101 -2.290479 8.454325 1.796538 -4.833635 
